<svg xmlns="http://www.w3.org/2000/svg" viewBox="0 0 1517 2048">
  <defs fill="#ffffff">
    <style>
      .cls-1 {
        fill: #dce0df;
      }

      .cls-2 {
        fill: none;
      }
    </style>
  </defs>
  <g id="Layer_2" data-name="Layer 2">
    <path class="cls-1" d="M993.58,34.67h427.15s73.15-1.91,75.83,62.81c2.68,64.72,0,1493.23,0,1493.23,0,0,23.94,422.88-445.98,438.83H240.19s3.06-154.72,215.17-215.57c59.39-17.04,136.91-12.32,233.23-12.32,0,0,193.99,20.36,295.09-122.87,77.94-110.41,104.22-216.72,112.17-259.65,5.07-27.38,12.86-54.21,23.63-79.88,27.34-65.14,84.18-160.17,183.41-161.21,0,0-138.64-39.26-85.02-308.11,53.62-268.85,58.98-383.17,58.98-383.17,0,0,43.15-362.85-283.27-452.09Z" fill="#ffffff"/>
  </g>
  <g id="Layer_3_copy_3" data-name="Layer 3 copy 3">
    <g>
      <path class="cls-2" d="M400.21,298.85c-22.09,0-33.17,18.35-42.96,51.83-14.85,50.82-16.4,134.67-16.4,227.74s-1.73,185.26,13.53,235.85c9.65,31.99,21.09,44.79,45.83,43.72,28.09-1.21,33.37-14.99,43.02-46.98,15.27-50.59,16.34-138,16.34-232.6s-4.2-173.28-15.19-225.06c-7.28-34.28-11.11-54.51-44.17-54.51Z" fill="#ffffff"/>
      <path d="M1031.02,406.21c-8.89-40.22-23.91-78.84-44.39-114.59-32.41-56.58-60.73-101.39-95.43-128.59-72.52-56.84-127.17-78.64-145.69-84.97-5.93-2.03-11.82-4.18-17.68-6.41-129.06-49.06-263.56-47.41-367.53-32.83C256,59.05,98.58,123.93,41.26,329.06c-11.92,42.64-18.43,85.98-18.43,130.99,0,462.53,0,1452.65,0,1529.31v41.06s138.75-36.71,198.56-139.41c.62-.97,1.25-1.94,1.85-2.92,2.56-4.15,5.47-10.16,8.67-17.77,0,0,0,0,0,0,1.04-2.39,1.95-4.61,2.74-6.71,30.3-76.28,83.91-276.21,130.69-409.35.62-1.77,1.25-3.53,1.87-5.28,42.29-118.39,118.37-221.78,218.26-298.1l133.74-102.19s199.07-142.1,286.58-325.36c54.93-115.02,42.26-239.99,25.22-317.12ZM443.23,811.02c-9.65,31.99-14.94,45.77-43.02,46.98-24.74,1.07-36.18-11.73-45.83-43.72-15.27-50.59-13.53-141.26-13.53-235.85s1.55-176.93,16.4-227.74c9.79-33.48,20.87-51.83,42.96-51.83,33.06,0,36.89,20.23,44.17,54.51,10.99,51.79,15.19,131.99,15.19,225.06s-1.07,182.01-16.34,232.6Z" fill="#ffffff"/>
    </g>
  </g>
</svg>